<svg id="Capa_1" enable-background="new 0 0 512 512" viewBox="0 0 512 512"
     xmlns="http://www.w3.org/2000/svg">
  <g>
    <path
      d="m512 256c0 110.89-70.51 205.31-169.14 240.88h-.02l-24.59 4.28c-41.19 7.17-83.31 7.17-124.5 0l-24.59-4.28h-.02c-98.63-35.57-169.14-129.99-169.14-240.88 0-46.22 12.25-89.57 33.68-127 44.12-77.07 127.16-129 222.32-129s178.2 51.93 222.32 129c21.43 37.43 33.68 80.78 33.68 127z"
      fill="#fff"/>
    <path
      d="m512 256c0 110.89-70.51 205.31-169.14 240.88l-24.61 4.28c-41.19 7.17-83.31 7.17-124.5 0l-24.61-4.28c-98.63-35.57-169.14-129.99-169.14-240.88 0-46.22 12.25-89.57 33.68-127 44.12 77.07 127.16 129 222.32 129s178.2-51.93 222.32-129c21.43 37.43 33.68 80.78 33.68 127z"
      fill="#fff"/>
    <g>
      <path
        d="m176.762 79.306c0-18.24 14.786-33.026 33.026-33.026 4.107 0 8.037.756 11.664 2.126 7.072-15.955 23.038-27.092 41.615-27.092 25.134 0 45.509 20.375 45.509 45.509 0 .206-.013.409-.016.615 1.685-.398 3.44-.615 5.246-.615 12.567 0 22.754 10.188 22.754 22.754v29.667h-159.798z"
        fill="#24292E"/>
      <path
        d="m214.455 86.431c0-9.635 7.811-17.446 17.446-17.446 2.17 0 4.245.399 6.161 1.123 3.736-8.428 12.17-14.311 21.983-14.311 13.277 0 24.04 10.763 24.04 24.04 0 .109-.007.216-.008.325.89-.21 1.817-.325 2.771-.325 6.638 0 12.02 5.382 12.02 12.02v15.672h-84.412v-21.098z"
        fill="#24292E"/>
      <path
        d="m362.303 114.096v110.127c0 15.88-1.634 31.667-4.847 47.133-3.214 15.462-8.007 30.594-14.33 45.16-12.652 29.122-19.182 60.533-19.182 92.288v83.604h-135.893v-83.604c0-15.875-1.629-31.671-4.842-47.133s-8.006-30.594-14.335-45.155c-12.647-29.128-19.177-60.538-19.177-92.294v-110.126c0-7.209 5.846-13.06 13.06-13.06h186.486c7.214 0 13.06 5.851 13.06 13.06z"
        fill="#24292E"/>
      <path
        d="m343.52 491.75c0 1.77-.23 3.49-.66 5.13-27.12 9.79-56.37 15.12-86.86 15.12s-59.74-5.33-86.86-15.12c-.43-1.64-.66-3.36-.66-5.13 0-11.18 9.07-20.24 20.25-20.24h134.54c5.59 0 10.65 2.27 14.32 5.93 3.66 3.66 5.93 8.72 5.93 14.31z"
        fill="#24292E"/>
      <path
        d="m343.52 491.75c0 1.77-.23 3.49-.66 5.13-27.12 9.79-56.37 15.12-86.86 15.12-15.5 0-30.67-1.38-45.41-4.02-.78-.59-1.51-1.22-2.2-1.91-3.66-3.66-5.93-8.72-5.93-14.32 0-11.18 9.06-20.24 20.24-20.24h100.57c5.59 0 10.65 2.27 14.32 5.93 3.66 3.66 5.93 8.72 5.93 14.31z"
        fill="#24292E"/>
      <path
        d="m343.52 491.75c0 1.77-.23 3.49-.66 5.13-27.12 9.79-56.37 15.12-86.86 15.12v-40.49h67.27c5.59 0 10.65 2.27 14.32 5.93 3.66 3.66 5.93 8.72 5.93 14.31z"
        fill="#24292E"/>
      <path
        d="m209.708 356.165c3.587 17.268 5.408 34.978 5.408 52.64v31.145h81.762v-31.145c0-35.672 7.209-70.351 21.426-103.075 5.556-12.799 9.813-26.219 12.652-39.88 2.839-13.671 4.281-27.681 4.281-41.627h-158.475c0 28.202 5.698 55.627 16.938 81.511 7.027 16.176 12.416 33.144 16.008 50.431z"
        fill="#24292E"/>
      <path
        d="m296.879 439.95v-31.145c0-35.672 7.209-70.351 21.426-103.075 5.556-12.799 9.813-26.219 12.652-39.88 2.839-13.671 4.281-27.681 4.281-41.627h-79.238v215.727z"
        fill="#24292E"/>
      <path d="m176.762 153.169h158.476v71.054h-158.476z" fill="#24292E"/>
      <path d="m256 153.169h79.238v71.054h-79.238z" fill="#24292E"/>
    </g>
  </g>
</svg>
